<?xml version="1.0" encoding="utf-8"?>
<!-- Generator: Adobe Illustrator 21.0.0, SVG Export Plug-In . SVG Version: 6.00 Build 0)  -->
<svg version="1.1" id="Capa_1" xmlns="http://www.w3.org/2000/svg" xmlns:xlink="http://www.w3.org/1999/xlink" x="0px" y="0px"
	 viewBox="0 0 414 97" style="enable-background:new 0 0 414 97;" xml:space="preserve">
<style type="text/css">
	.st0{fill:#263377;}
	.st1{fill:#3CAA34;}
</style>
<path class="st0" d="M414,3.7l-10,0.8c-10,0.8-29,2.4-49,6.3c-20,4.3-40,10.6-59,9.8c-20-0.8-40-9.1-59-10.6c-20-1.6-40,3.5-60,9.8
	c-19,6.7-39,14.6-59,13.8C99,32.9,79,23,59,22.2s-39,7.5-49,11.4L0,38V0h11.5C21.5,0,39,0,59,0s42,0,61,0c20,0,36.5,0,59.5,0
	c23,0,38.5,0,58.5,0c19,0,43,0,63,0s36.5,0,59,0c22.5,0,32,0,42,0h12V3.7z"/>
<path class="st1" d="M414,0l-10,0.8c-10,0.8-29,2.4-49,6.3c-20,4.3-40,10.6-59,9.8c-20-0.8-40-9.1-59-10.6c-20-1.6-40,3.5-60,9.8
	c-19,6.7-39,14.6-59,13.8c-19-0.8-39-10.6-59-11.4S20,26,10,29.9L0,34.3V0h13.5C23.5,0,39,0,59,0s41,0,60,0c20,0,39,0,58,0
	c20,0,40,0,60,0c19,0,37.5,0,57.5,0c19,0,40.5,0,60.5,0s34,0,44,0H414z"/>
</svg>
